<svg width="35" height="28" fill="none" xmlns="http://www.w3.org/2000/svg"><path d="M34.14 4.08c-1.22.52-2.55.9-3.93 1.05a6.8 6.8 0 0 0 3-3.76c-1.33.8-2.8 1.35-4.32 1.65a6.8 6.8 0 0 0-5-2.16 6.82 6.82 0 0 0-6.65 8.4A19.4 19.4 0 0 1 3.17 2.1a6.83 6.83 0 0 0 2.11 9.13 6.88 6.88 0 0 1-3.08-.86v.08a6.83 6.83 0 0 0 5.47 6.7 7.23 7.23 0 0 1-3.09.13 6.84 6.84 0 0 0 6.38 4.73A13.68 13.68 0 0 1 .84 24.86a19.33 19.33 0 0 0 10.48 3.06c12.55 0 19.42-10.4 19.42-19.43 0-.3 0-.59-.02-.88a14.7 14.7 0 0 0 3.42-3.53Z" fill="#FA4A0C"/></svg>